<svg xmlns="http://www.w3.org/2000/svg" viewBox="0 0 100 100">
  <style>
    path {
      fill: none;
      stroke: black;
      stroke-width: 5;
    }

    @media (prefers-color-scheme: dark) {
      path {
        stroke: #ddd;
      }
    }
  </style>
  <!-- left -->
  <path d="M 4,30 L 4,60 L 30,60 L 30,30 Z" />
  <path d="M 17,10 L 17,90" />
  <path d="M 2,92 L 30,85" />
  <path d="M 35,95 L 28,72" />
  <!-- right top -->
  <path d="M 58,10 L 60,20" />
  <path d="M 78,10 L 76,20" />
  <path d="M 40,20 L 96,20" />
  <path d="M 68,20 L 68,50" />
  <path d="M 42,35 L 94,35" />
  <path d="M 40,50 L 96,50" />
  <!-- right bot -->
  <path d="M 65,55 L 40,60" />
  <path d="M 40,68 L 96,68" />
  <path d="M 53,57 L 53,95 L 40,90" />
  <path d="M 40,80 L 65,75" />
  <path d="M 70,55 L 85,94 L 96,80" />
  <path d="M 90,75 L 62,90" />
  <path d="M 78,56 L 90,62" />
</svg>
